# xmcd CD database file
#
# Track frame offsets:
#	150
#	15470
#	30030
#	48531
#
# Disc length: 828 seconds
#
# Revision: 0
# Processed by: cddbd v1.5.1PL0 Copyright (c) Steve Scherf et al.
# Submitted via: CDex 1.51
#
DISCID=1f033a04
DTITLE=Riff Random - Low Is High
DYEAR=2005
DGENRE=Rock
TTITLE0=In My Heart
TTITLE1=Let Yourself Go
TTITLE2=Hot Kids
TTITLE3=Calm Down
EXTD=YEAR: 2005
EXTT0=
EXTT1=
EXTT2=
EXTT3=
PLAYORDER=
